<svg xmlns="http://www.w3.org/2000/svg" viewBox="0 0 332.24 107.41"><defs><style>.cls-1,.cls-5{fill:#007f00;}.cls-2,.cls-4{fill:#cb0000;}.cls-3,.cls-5{opacity:0.8;}.cls-4{opacity:0.81;}</style></defs><g id="Layer_2" data-name="Layer 2"><g id="Layer_1-2" data-name="Layer 1"><rect class="cls-1" x="181.59" y="92.8" width="58.45" height="14.18"/><rect class="cls-2" x="181.63" y="61.82" width="52.36" height="14.16"/><rect x="181.59" y="34.36" width="57.16" height="14.18"/><path d="M320.29,47.44a3.3,3.3,0,0,0,1.48.23,10.09,10.09,0,0,0,1.05-.06,3.58,3.58,0,0,0,.86-.18v-1.5l-2,.11a4.39,4.39,0,0,0-1.29.23c-.34.12-.51.31-.51.56A.7.7,0,0,0,320.29,47.44Z"/><path d="M322.1,94.54a2.54,2.54,0,0,0-1.82.61,2.22,2.22,0,0,0-.65,1.73,2.27,2.27,0,0,0,.66,1.75,2.65,2.65,0,0,0,1.84.61,2.52,2.52,0,0,0,1.82-.62,2.32,2.32,0,0,0,.63-1.74,2.25,2.25,0,0,0-.65-1.73A2.55,2.55,0,0,0,322.1,94.54Z"/><path d="M312.17,34.63V84.55L282.24,34.63H258.56v72.78h20.13V57.49l29.87,49.92h23.68V34.63Zm16.47,23.18a1.36,1.36,0,0,1,.19.76v5.69c0,.63-.4,1.09-1.19,1.41a10.15,10.15,0,0,1-2.34.62,18.32,18.32,0,0,1-3,.22,16.19,16.19,0,0,1-2.8-.23,8.09,8.09,0,0,1-2.21-.69,3.65,3.65,0,0,1-1.43-1.21,3.06,3.06,0,0,1-.51-1.78V57.24c.19,0,.48-.07.89-.11s.82-.06,1.25-.06a9.29,9.29,0,0,1,1.11.06,2.57,2.57,0,0,1,.83.22,1.3,1.3,0,0,1,.52.46,1.45,1.45,0,0,1,.18.76v4a1.16,1.16,0,0,0,.57,1.09,3.23,3.23,0,0,0,1.63.33,5.9,5.9,0,0,0,1.05-.08,5.66,5.66,0,0,0,.64-.15V57.24c.18,0,.48-.07.88-.11s.82-.06,1.25-.06a9.17,9.17,0,0,1,1.11.06,2.57,2.57,0,0,1,.83.22A1.3,1.3,0,0,1,328.64,57.81Zm-5.45,24.44a3.25,3.25,0,0,0,1.31.21,8.72,8.72,0,0,0,1.65-.17,2.39,2.39,0,0,1,.44.46,1,1,0,0,1,.18.61,1.32,1.32,0,0,1-.8,1.16,6.22,6.22,0,0,1-2.82.45,7.9,7.9,0,0,1-3.82-.75A2.57,2.57,0,0,1,318,81.79v-8l.88-.12a12.07,12.07,0,0,1,1.23-.06,5,5,0,0,1,1.92.29,1.18,1.18,0,0,1,.69,1.22v1.2h3.69a2.75,2.75,0,0,1,.32.52,1.51,1.51,0,0,1,.16.68,1,1,0,0,1-.44.94,2,2,0,0,1-1.17.3h-2.56v2.82A.7.7,0,0,0,323.19,82.25ZM316.39,45A8.3,8.3,0,0,1,320,44.1l3.68-.26V43.7c0-.36-.24-.62-.72-.77a6.76,6.76,0,0,0-2.06-.24,14,14,0,0,0-2.08.15,15,15,0,0,0-1.83.38,1.55,1.55,0,0,1-.62-.52,1.19,1.19,0,0,1-.25-.72.93.93,0,0,1,.35-.77,2.87,2.87,0,0,1,1.08-.5,11.55,11.55,0,0,1,1.93-.3c.74-.06,1.44-.09,2.09-.09a16.84,16.84,0,0,1,2.77.2,8.1,8.1,0,0,1,2.14.63,3.55,3.55,0,0,1,1.36,1.07,2.48,2.48,0,0,1,.48,1.52v4.2a.93.93,0,0,1-.41.79,3.88,3.88,0,0,1-1,.53,14.26,14.26,0,0,1-5.14.73,18.18,18.18,0,0,1-2.69-.18,8.53,8.53,0,0,1-2.05-.56,3.3,3.3,0,0,1-1.32-1,2.09,2.09,0,0,1-.47-1.35A2.2,2.2,0,0,1,316.39,45Zm12.55,54a4.57,4.57,0,0,1-1.51,1.52,7.42,7.42,0,0,1-2.32.94,13.24,13.24,0,0,1-3,.32,12.62,12.62,0,0,1-3-.34,7.85,7.85,0,0,1-2.33-1,4.75,4.75,0,0,1-1.5-1.53,4.1,4.1,0,0,1,0-4,4.83,4.83,0,0,1,1.5-1.52,7.59,7.59,0,0,1,2.33-1,13.45,13.45,0,0,1,6,0,8,8,0,0,1,2.32,1,4.66,4.66,0,0,1,1.51,1.52,3.78,3.78,0,0,1,.53,2A4,4,0,0,1,328.94,99Z"/><polygon points="98.14 34.16 94.12 34.16 94.12 106.94 98.12 106.94 98.14 34.16"/><polygon points="130.9 68.62 170.56 34.16 145.89 34.16 115.35 60.73 115.35 34.16 102.89 34.16 102.86 106.94 115.35 106.94 115.35 78.27 148.03 106.94 174.59 106.94 130.9 68.62"/><path class="cls-3" d="M14.65,76.93a13.29,13.29,0,0,1-3.22-.41,12.9,12.9,0,1,1,15.72-9.27h0A12.94,12.94,0,0,1,14.65,76.93ZM14.52,64a.14.14,0,0,0,.1.16.13.13,0,0,0,.16-.09Zm.13-.1a.14.14,0,0,0-.13.1l.26.06a.13.13,0,0,0-.09-.16Z"/><path class="cls-4" d="M61.41,89A21.53,21.53,0,1,1,82.94,67.5,21.56,21.56,0,0,1,61.41,89Zm0-30a8.5,8.5,0,1,0,8.49,8.5A8.51,8.51,0,0,0,61.41,59Z"/><path class="cls-5" d="M54.55,33.59a16.87,16.87,0,1,1,5.25-.85A16.72,16.72,0,0,1,54.55,33.59Zm0-20.55a3.75,3.75,0,0,0-3.35,2.05h0a3.76,3.76,0,0,0,1.65,5.05,3.75,3.75,0,0,0,3.39-6.7A3.78,3.78,0,0,0,54.57,13Z"/><path d="M76.79,107.41H7.89a7.9,7.9,0,0,1,0-15.79h68.9a7.9,7.9,0,1,1,0,15.79Z"/></g></g></svg>